Coordinates
version=1
nRows=7
nColumns=33
inDegrees=yes

Units are S.I. units (second, meters, Newtons, ...)
Angles are in degrees.

endheader
time	ground_thorax_rot_x	ground_thorax_rot_y	ground_thorax_rot_z	ground_thorax_tx	ground_thorax_ty	ground_thorax_tz	clav_prot_r	clav_elev_r	scapula_abduction_r	scapula_elevation_r	scapula_upward_rot_r	scapula_winging_r	shoulder_elv_r	plane_of_elev_r	axial_rot_r	elbow_flexion_r	pro_sup_r	wrist_flex_r	wrist_dev_r	clav_prot_l	clav_elev_l	scapula_abduction_l	scapula_elevation_l	scapula_upward_rot_l	scapula_winging_l	shoulder_elv_l	plane_of_elev_l	axial_rot_l	elbow_flexion_l	pro_sup_l	wrist_flex_l	wrist_dev_l
     10.76000000	     27.32024259	     28.92448469	     45.08435623	     -8.04728040	    815.06957939	    -36.32078860	     13.25256143	     34.89155503	     29.80727504	     45.00000000	    -45.00000000	   1715.42279076	    431.13046701	     23.35796151	   -174.53351157	   2518.01796316	    168.90423816	     13.48565560	     15.07318866	     -8.75029462	    -45.00000000	    -37.94992861	     45.00000000	    -45.00000000	   4060.53493896	  -4603.52402635	     26.86162938	     37.07907561	   2871.02147506	   -312.19046378	     13.98491249	    -17.76445446
     10.77000000	     27.25319083	     28.96673993	     45.25074522	     -5.65740282	    813.81860318	    -36.17118066	     13.62057598	     34.97177383	     30.09503950	     45.00000000	    -45.00000000	   1715.36890465	    430.90091766	     23.25944362	   -174.32222906	   2518.05948060	    169.61377952	     13.51277349	     14.99404853	     -9.15399279	    -45.00000000	    -37.63192502	     45.00000000	    -45.00000000	   4060.34380214	  -4603.57736168	     26.85480098	     37.01882863	   2870.91081646	   -312.04212147	     13.91433220	    -17.60828920
     10.78000000	     27.08422615	     29.02983127	     45.46927058	     -3.29510089	    812.55539636	    -36.02027853	     13.49829572	     34.99416087	     29.93370152	     45.00000000	    -45.00000000	   1715.65531540	    431.00614604	     23.23121697	   -174.06306826	   2518.02094941	    170.24266021	     13.48442420	     14.97832678	     -9.16970783	    -45.00000000	    -37.60435837	     45.00000000	    -45.00000000	   4060.21365455	  -4603.69669793	     26.74037419	     36.74882256	   2870.89199885	   -311.91102833	     13.80783122	    -17.44638695
     10.79000000	     26.86828258	     29.17283455	     45.76738609	     -0.95691137	    811.27621710	    -35.86718049	     13.59082479	     34.96348011	     29.90839801	     45.00000000	    -45.00000000	   1715.76584611	    430.89107902	     23.16488860	   -174.06605118	   2518.16447184	    170.79923933	     13.42706603	     14.91843612	     -9.34788030	    -45.00000000	    -37.45134132	     45.00000000	    -45.00000000	   4060.10097562	  -4603.80166979	     26.71289454	     36.50521220	   2870.87278569	   -311.78354475	     13.69607876	    -17.28035915
     10.80000000	     26.73772036	     29.23253251	     45.91490372	      1.35178116	    809.98191071	    -35.71150733	     13.56137867	     35.01710156	     29.79452027	     45.00000000	    -45.00000000	   1715.95303824	    430.92563581	     23.15725839	   -173.83052722	   2518.13141803	    171.37024914	     13.40003911	     14.89418824	     -9.46357971	    -45.00000000	    -37.35086584	     45.00000000	    -45.00000000	   4059.93652531	  -4603.92546878	     26.66311976	     36.25273911	   2870.84383433	   -311.64482609	     13.61139088	    -17.14068596
     10.81000000	     26.56788419	     29.34077074	     46.27681142	      3.63291770	    808.66951968	    -35.55263006	     13.59524396	     35.00148386	     29.89971119	     45.00000000	    -45.00000000	   1715.99912402	    430.74737669	     23.09407743	   -173.88149726	   2518.28258841	    171.89309369	     13.35969336	     14.83333265	     -9.63808398	    -45.00000000	    -37.17464325	     45.00000000	    -45.00000000	   4059.94630123	  -4604.04421693	     26.62057144	     36.07642201	   2870.79398094	   -311.49146783	     13.54601358	    -17.02991995
     10.82000000	     26.50146211	     29.34825828	     46.32977560	      5.88324677	    807.33868831	    -35.39073990	     13.50046764	     35.13961760	     29.76238006	     45.00000000	    -45.00000000	   1716.22346547	    430.81404285	     23.06424973	   -173.47707401	   2518.16295294	    172.45860589	     13.34934544	     14.81809456	     -9.76841418	    -45.00000000	    -37.08345290	     45.00000000	    -45.00000000	   4059.74734187	  -4604.17216903	     26.55139019	     35.83968749	   2870.77333589	   -311.32527578	     13.46553709	    -16.90449287
